<svg color="#ffffff" class="SDI4KgHxNEKLKUbAfXQV" data-testid="notino-logo-icon" xmlns="http://www.w3.org/2000/svg" viewBox="0 0 286 50" aria-label="Notino logo"><path fill="currentColor" d="M284.7,25.4c0,14-10.87,24.1-24.37,24.1S235.9,39.36,235.9,25.4,246.84,1.3,260.33,1.3,284.7,11.39,284.7,25.4m-38.19,0C246.51,34,252.74,40,260.27,40S274,34,274,25.4s-6.16-14.67-13.76-14.67-13.76,6-13.76,14.67"></path><path fill="currentColor" d="M102.81,25.4c0,14-10.87,24.1-24.37,24.1S54,39.36,54,25.4,65,1.3,78.45,1.3s24.37,10.09,24.37,24.1m-38.19,0C64.63,34,70.85,40,78.38,40S92.14,34,92.14,25.4,86,10.73,78.38,10.73s-13.75,6-13.75,14.67"></path><polygon fill="currentColor" points="146.64 11.45 132.56 11.45 132.56 48.4 122.08 48.4 122.08 11.45 108 11.45 108 2.54 146.64 2.54 146.64 11.45"></polygon><rect fill="currentColor" x="158.18" y="2.54" width="10.48" height="45.85"></rect><path fill="currentColor" d="M32.67,2.55V31.17s-10.08-14-14.25-19.76a48.15,48.15,0,0,0-3.71-4.78A13.2,13.2,0,0,0,1.24,2.55V48.39H11.72V19.77S21.8,33.77,26,39.54a48.15,48.15,0,0,0,3.71,4.78,13.17,13.17,0,0,0,13.48,4.08V2.55Z"></path><path fill="currentColor" d="M214.56,2.55V31.17s-10.08-14-14.25-19.76a48.15,48.15,0,0,0-3.71-4.78,13.2,13.2,0,0,0-13.48-4.08V48.39H193.6V19.77s10.08,14,14.25,19.76a48.14,48.14,0,0,0,3.71,4.78A13.17,13.17,0,0,0,225,48.39V2.55Z"></path></svg>